<svg width="149" height="113" viewBox="0 0 149 113" fill="none" xmlns="http://www.w3.org/2000/svg">
<path fill-rule="evenodd" clip-rule="evenodd" d="M73.3626 109.886C65.5781 108.495 57.1248 97.8517 49.2601 97.033C36.8765 95.7438 20.484 114.464 14.1136 103.719C7.17418 92.0131 25.5882 80.2864 22.7356 66.967C19.939 53.9088 2.0805 52.7598 0.363107 39.5147C-1.05834 28.5521 13.1365 21.1002 22.7356 15.694C31.3383 10.849 41.6654 10.9028 51.5257 10.7001C59.0142 10.5461 68.8501 12.2245 76.1849 10.7001C86.1373 8.63157 89.87 0.493177 100.032 0.618489C109.65 0.737079 124.381 5.62203 124.502 15.2836C124.68 29.5204 112.337 38.8867 117.469 52.1584C123.779 68.4753 138.123 57.9607 146.862 73.1053C152.479 82.8403 139.493 95.1612 130.824 102.287C122.392 109.218 110.735 110.25 99.9327 111.679C91.0203 112.858 82.2129 111.469 73.3626 109.886Z" fill="#E2F7ED"/>
</svg>
