<svg width="48" height="59" viewBox="0 0 48 59" fill="none" xmlns="http://www.w3.org/2000/svg">
<path d="M24 0.556519C10.7854 0.556519 0 13.5741 0 29.5235C0 45.4729 10.7854 58.4904 24 58.4904C37.2146 58.4904 48 45.4729 48 29.5235C48 13.5741 37.2146 0.556519 24 0.556519ZM6.70445 29.5235C6.70445 23.5425 8.8421 18.0305 12.2429 14.2777C13.6032 12.7531 15.9352 13.2222 16.9069 15.2159L22.9312 27.7644C23.5142 28.9371 23.5142 30.3444 22.9312 31.5171L16.9069 44.0656C15.9352 46.1766 13.6032 46.5284 12.1458 44.8865C8.84211 40.8992 6.70445 35.5045 6.70445 29.5235ZM31.0931 43.831L25.0688 31.2826C24.4858 30.1099 24.4858 28.7026 25.0688 27.5298L31.0931 14.9813C32.0648 12.9877 34.2996 12.5186 35.7571 14.0432C39.1579 17.796 41.2956 23.3079 41.2956 29.2889C41.2956 35.27 39.1579 40.7819 35.7571 44.5347C34.2996 46.4111 32.0648 45.942 31.0931 43.831Z" fill="#121010"/>
</svg>
