<svg width="20" height="20" viewBox="0 0 20 20" fill="none" xmlns="http://www.w3.org/2000/svg">
<path fill-rule="evenodd" clip-rule="evenodd" d="M13 1.66666C12.6464 1.66666 12.3072 1.80713 12.0572 2.05718C11.8071 2.30723 11.6667 2.64637 11.6667 2.99999V6.66666H8C7.64638 6.66666 7.30724 6.80713 7.05719 7.05718C6.80714 7.30723 6.66667 7.64637 6.66667 7.99999V12.5H3C2.64638 12.5 2.30725 12.6405 2.0572 12.8905C1.80715 13.1406 1.66667 13.4797 1.66667 13.8333V17C1.66667 17.3536 1.80715 17.6927 2.0572 17.9428C2.30725 18.1928 2.64638 18.3333 3 18.3333H17C17.3536 18.3333 17.6928 18.1928 17.9428 17.9428C18.1929 17.6927 18.3333 17.3536 18.3333 17V2.99999C18.3333 2.64637 18.1929 2.30723 17.9428 2.05718C17.6928 1.80713 17.3536 1.66666 17 1.66666H13ZM8.33334 8.33332H11.6667V16.6667H8.33334V8.33332ZM16.6667 16.6667H13.3333V3.33332H16.6667V16.6667ZM6.66667 14.1667V16.6667H3.33334V14.1667H6.66667Z" fill="black"/>
</svg>
