<svg width="20" height="20" viewBox="0 0 20 20" fill="none" xmlns="http://www.w3.org/2000/svg">
<path fill-rule="evenodd" clip-rule="evenodd" d="M6.66667 1.66668C6.66667 1.20644 6.29357 0.833344 5.83334 0.833344C5.3731 0.833344 5 1.20644 5 1.66668V2.50001H4.16667C3.50363 2.50001 2.86775 2.7634 2.3989 3.23224C1.93006 3.70108 1.66667 4.33697 1.66667 5.00001V15.8333C1.66667 16.4964 1.93006 17.1323 2.3989 17.6011C2.86775 18.07 3.50363 18.3333 4.16667 18.3333H15.8333C16.4964 18.3333 17.1323 18.07 17.6011 17.6011C18.0699 17.1323 18.3333 16.4964 18.3333 15.8333V5.00001C18.3333 4.33697 18.0699 3.70108 17.6011 3.23224C17.1323 2.7634 16.4964 2.50001 15.8333 2.50001H15.4167C14.9564 2.50001 14.5833 2.87311 14.5833 3.33334C14.5833 3.79358 14.9564 4.16668 15.4167 4.16668H15.8333C16.0543 4.16668 16.2663 4.25447 16.4226 4.41075C16.5789 4.56703 16.6667 4.779 16.6667 5.00001V7.50001H3.33334V5.00001C3.33334 4.779 3.42114 4.56703 3.57742 4.41075C3.7337 4.25447 3.94566 4.16668 4.16667 4.16668H5V5.00001C5 5.46025 5.3731 5.83334 5.83334 5.83334C6.29357 5.83334 6.66667 5.46025 6.66667 5.00001V1.66668ZM3.57742 16.4226C3.42114 16.2663 3.33334 16.0544 3.33334 15.8333V9.16668H16.6667V15.8333C16.6667 16.0544 16.5789 16.2663 16.4226 16.4226C16.2663 16.5789 16.0543 16.6667 15.8333 16.6667H4.16667C3.94566 16.6667 3.7337 16.5789 3.57742 16.4226Z" fill="#5C5E64"/>
<path d="M13.3333 1.66668C13.3333 1.20644 12.9602 0.833344 12.5 0.833344C12.0398 0.833344 11.6667 1.20644 11.6667 1.66668V2.50001H8.75C8.28977 2.50001 7.91667 2.87311 7.91667 3.33334C7.91667 3.79358 8.28977 4.16668 8.75 4.16668H11.6667V5.00001C11.6667 5.46025 12.0398 5.83334 12.5 5.83334C12.9602 5.83334 13.3333 5.46025 13.3333 5.00001V1.66668Z" fill="#5C5E64"/>
</svg>
