<svg width="20" height="20" viewBox="0 0 20 20" fill="none" xmlns="http://www.w3.org/2000/svg">
<g clip-path="url(#clip0_101_244)">
<path fill-rule="evenodd" clip-rule="evenodd" d="M9.99999 6.66665C9.11594 6.66665 8.26809 7.01783 7.64297 7.64296C7.01785 8.26808 6.66666 9.11592 6.66666 9.99998C6.66666 10.884 7.01785 11.7319 7.64297 12.357C8.26809 12.9821 9.11594 13.3333 9.99999 13.3333C10.884 13.3333 11.7319 12.9821 12.357 12.357C12.9821 11.7319 13.3333 10.884 13.3333 9.99998C13.3333 9.11592 12.9821 8.26808 12.357 7.64296C11.7319 7.01783 10.884 6.66665 9.99999 6.66665ZM8.82148 8.82147C9.13404 8.50891 9.55797 8.33331 9.99999 8.33331C10.442 8.33331 10.8659 8.50891 11.1785 8.82147C11.4911 9.13403 11.6667 9.55795 11.6667 9.99998C11.6667 10.442 11.4911 10.8659 11.1785 11.1785C10.8659 11.4911 10.442 11.6666 9.99999 11.6666C9.55797 11.6666 9.13404 11.4911 8.82148 11.1785C8.50892 10.8659 8.33333 10.442 8.33333 9.99998C8.33333 9.55795 8.50892 9.13403 8.82148 8.82147Z" fill="#5C5E64"/>
<path fill-rule="evenodd" clip-rule="evenodd" d="M9.15083 0.833313C8.77229 0.833313 8.4413 1.08845 8.34494 1.45452L7.92265 3.05885L6.58095 3.62445L5.5539 2.71071C5.22415 2.41734 4.72284 2.43196 4.41074 2.74406L2.74407 4.41072C2.44215 4.71264 2.41728 5.19392 2.68647 5.52535L3.58658 6.63361L3.03461 7.99154L1.47721 8.35513C1.1001 8.44317 0.833328 8.77939 0.833328 9.16665V10.8333C0.833328 11.2091 1.08482 11.5384 1.44734 11.6373L3.05707 12.0764L3.6242 13.4217L2.71138 14.4453C2.41737 14.775 2.43171 15.2769 2.74407 15.5892L4.41074 17.2559C4.71306 17.5582 5.19514 17.5827 5.52653 17.3126L6.6344 16.4094L7.95895 16.9543L8.35869 18.5373C8.45213 18.9074 8.78501 19.1666 9.16666 19.1666H10.8333C11.2148 19.1666 11.5476 18.9076 11.6412 18.5377L12.0419 16.954L13.4108 16.3871C13.5486 16.5026 13.7066 16.6382 13.8638 16.7751C14.02 16.9111 14.1652 17.0393 14.2715 17.1336C14.3245 17.1807 14.3677 17.2192 14.3976 17.2459L14.4429 17.2864C14.7724 17.582 15.2762 17.5689 15.5892 17.2559L17.2559 15.5892C17.5626 15.2825 17.5828 14.7918 17.3022 14.461L16.3945 13.3905L16.9562 12.0338L18.5429 11.6215C18.9102 11.5261 19.1667 11.1945 19.1667 10.815V9.16665C19.1667 8.78555 18.9081 8.453 18.5388 8.35904L16.9619 7.95785L16.4016 6.60443L17.3031 5.53794C17.5828 5.20706 17.5623 4.71707 17.2559 4.41072L15.5892 2.74406C15.2817 2.43646 14.7892 2.41721 14.4585 2.69985L13.3999 3.60471L11.9988 3.02864L11.5851 1.45479C11.4889 1.08859 11.1578 0.833313 10.7792 0.833313H9.15083ZM15.5346 14.9535L14.9645 15.5236L14.9583 15.5182C14.6505 15.2502 14.2541 14.9111 14.0305 14.7512C13.7965 14.5839 13.4927 14.5492 13.2269 14.6592L11.0178 15.5742C10.7746 15.6749 10.5933 15.8846 10.5288 16.1397L10.1846 17.5H9.81572L9.47213 16.1393C9.40749 15.8833 9.22536 15.6731 8.98118 15.5726L6.80952 14.6793C6.52674 14.563 6.20296 14.6109 5.96596 14.8041L5.05694 15.5451L4.47909 14.9672L5.21861 14.1379C5.4327 13.8979 5.4895 13.556 5.36455 13.2596L4.43539 11.0554C4.33597 10.8196 4.13372 10.6425 3.88682 10.5752L2.49999 10.1969V9.82784L3.83362 9.51649C4.09708 9.45498 4.31428 9.26941 4.41616 9.01877L5.31616 6.80461C5.43062 6.523 5.38267 6.2014 5.19102 5.96544L4.45393 5.05789L5.03339 4.47842L5.86609 5.21924C6.10615 5.43282 6.44761 5.48935 6.7437 5.36454L8.94787 4.43537C9.1861 4.33494 9.36423 4.12963 9.43004 3.87961L9.79319 2.49998H10.1366L10.4924 3.85351C10.5588 4.10615 10.7398 4.31304 10.9814 4.41238L13.2373 5.33988C13.5265 5.45879 13.8579 5.40578 14.0956 5.20261L14.9557 4.46748L15.5355 5.04732L14.8011 5.91619C14.5998 6.15429 14.5483 6.48482 14.6675 6.77288L15.5817 8.98122C15.6822 9.22408 15.8915 9.40528 16.1462 9.47009L17.5 9.81451V10.1705L16.1354 10.5251C15.8825 10.5908 15.675 10.7714 15.575 11.0129L14.66 13.2229C14.5406 13.5114 14.5925 13.8425 14.7944 14.0806L15.5346 14.9535Z" fill="#5C5E64"/>
</g>
<defs>
<clipPath id="clip0_101_244">
<rect width="20" height="20" fill="white"/>
</clipPath>
</defs>
</svg>
