<svg width="16" height="16" viewBox="0 0 16 16" fill="none" xmlns="http://www.w3.org/2000/svg">
<path d="M8.23603 8.2359C8.17352 8.29841 8.08873 8.33353 8.00033 8.33353C7.91192 8.33353 7.82714 8.29841 7.76462 8.2359C7.70211 8.17338 7.66699 8.0886 7.66699 8.00019C7.66699 7.91179 7.70211 7.827 7.76462 7.76449C7.82714 7.70198 7.91192 7.66686 8.00033 7.66686C8.08873 7.66686 8.17352 7.70198 8.23603 7.76449C8.29854 7.827 8.33366 7.91179 8.33366 8.00019C8.33366 8.0886 8.29854 8.17338 8.23603 8.2359Z" fill="black"/>
<path d="M8.23603 13.5692C8.17352 13.6317 8.08873 13.6669 8.00033 13.6669C7.91192 13.6669 7.82714 13.6317 7.76462 13.5692C7.70211 13.5067 7.66699 13.4219 7.66699 13.3335C7.66699 13.2451 7.70211 13.1603 7.76462 13.0978C7.82714 13.0353 7.91192 13.0002 8.00033 13.0002C8.08873 13.0002 8.17352 13.0353 8.23603 13.0978C8.29854 13.1603 8.33366 13.2451 8.33366 13.3335C8.33366 13.4219 8.29854 13.5067 8.23603 13.5692Z" fill="black"/>
<path d="M8.23603 2.90256C8.17352 2.96507 8.08873 3.00019 8.00033 3.00019C7.91192 3.00019 7.82714 2.96507 7.76462 2.90256C7.70211 2.84005 7.66699 2.75527 7.66699 2.66686C7.66699 2.57845 7.70211 2.49367 7.76462 2.43116C7.82714 2.36865 7.91192 2.33353 8.00033 2.33353C8.08873 2.33353 8.17352 2.36865 8.23603 2.43116C8.29854 2.49367 8.33366 2.57845 8.33366 2.66686C8.33366 2.75527 8.29854 2.84005 8.23603 2.90256Z" fill="black"/>
<path d="M8.23603 8.2359C8.17352 8.29841 8.08873 8.33353 8.00033 8.33353C7.91192 8.33353 7.82714 8.29841 7.76462 8.2359C7.70211 8.17338 7.66699 8.0886 7.66699 8.00019C7.66699 7.91179 7.70211 7.827 7.76462 7.76449C7.82714 7.70198 7.91192 7.66686 8.00033 7.66686C8.08873 7.66686 8.17352 7.70198 8.23603 7.76449C8.29854 7.827 8.33366 7.91179 8.33366 8.00019C8.33366 8.0886 8.29854 8.17338 8.23603 8.2359Z" stroke="black" stroke-width="1.33333" stroke-linecap="round" stroke-linejoin="round"/>
<path d="M8.23603 13.5692C8.17352 13.6317 8.08873 13.6669 8.00033 13.6669C7.91192 13.6669 7.82714 13.6317 7.76462 13.5692C7.70211 13.5067 7.66699 13.4219 7.66699 13.3335C7.66699 13.2451 7.70211 13.1603 7.76462 13.0978C7.82714 13.0353 7.91192 13.0002 8.00033 13.0002C8.08873 13.0002 8.17352 13.0353 8.23603 13.0978C8.29854 13.1603 8.33366 13.2451 8.33366 13.3335C8.33366 13.4219 8.29854 13.5067 8.23603 13.5692Z" stroke="black" stroke-width="1.33333" stroke-linecap="round" stroke-linejoin="round"/>
<path d="M8.23603 2.90256C8.17352 2.96507 8.08873 3.00019 8.00033 3.00019C7.91192 3.00019 7.82714 2.96507 7.76462 2.90256C7.70211 2.84005 7.66699 2.75527 7.66699 2.66686C7.66699 2.57845 7.70211 2.49367 7.76462 2.43116C7.82714 2.36865 7.91192 2.33353 8.00033 2.33353C8.08873 2.33353 8.17352 2.36865 8.23603 2.43116C8.29854 2.49367 8.33366 2.57845 8.33366 2.66686C8.33366 2.75527 8.29854 2.84005 8.23603 2.90256Z" stroke="black" stroke-width="1.33333" stroke-linecap="round" stroke-linejoin="round"/>
</svg>
