<svg width="32" height="32" viewBox="0 0 32 32" fill="none" xmlns="http://www.w3.org/2000/svg">
<path d="M26.6125 15.2875L22.825 19.075C22.175 19.7251 21.4033 20.2408 20.554 20.5926C19.7046 20.9444 18.7943 21.1255 17.875 21.1255C16.9557 21.1255 16.0454 20.9444 15.1961 20.5926C14.3467 20.2408 13.575 19.7251 12.925 19.075C12.7648 18.9416 12.6341 18.7763 12.5413 18.5896C12.4485 18.4028 12.3957 18.1988 12.3862 17.9905C12.3767 17.7822 12.4107 17.5743 12.4861 17.3799C12.5615 17.1855 12.6765 17.0089 12.824 16.8615C12.9714 16.714 13.148 16.599 13.3424 16.5236C13.5368 16.4482 13.7448 16.4142 13.953 16.4237C14.1613 16.4332 14.3653 16.486 14.5521 16.5788C14.7388 16.6716 14.9041 16.8023 15.0375 16.9625C15.7911 17.7083 16.8085 18.1266 17.8688 18.1266C18.929 18.1266 19.9464 17.7083 20.7 16.9625L24.4875 13.175C25.2384 12.4241 25.6603 11.4057 25.6603 10.3438C25.6603 9.28184 25.2384 8.26341 24.4875 7.51252C23.7366 6.76162 22.7182 6.33977 21.6563 6.33977C20.5943 6.33977 19.5759 6.76162 18.825 7.51252L17.625 8.72502C17.3432 9.00681 16.961 9.16512 16.5625 9.16512C16.164 9.16512 15.7818 9.00681 15.5 8.72502C15.2182 8.44322 15.0599 8.06103 15.0599 7.66252C15.0599 7.264 15.2182 6.88181 15.5 6.60002L16.7125 5.38752C18.0253 4.07469 19.8059 3.33716 21.6625 3.33716C23.5191 3.33716 25.2997 4.07469 26.6125 5.38752C27.9253 6.70034 28.6629 8.4809 28.6629 10.3375C28.6629 12.1941 27.9253 13.9747 26.6125 15.2875ZM14.375 23.275L13.175 24.4875C12.4241 25.2384 11.4057 25.6603 10.3438 25.6603C9.28184 25.6603 8.26341 25.2384 7.51252 24.4875C6.76162 23.7366 6.33977 22.7182 6.33977 21.6563C6.33977 20.5943 6.76162 19.5759 7.51252 18.825L11.3 15.0375C12.0536 14.2917 13.071 13.8734 14.1313 13.8734C15.1915 13.8734 16.2089 14.2917 16.9625 15.0375C17.2501 15.2769 17.6168 15.4001 17.9905 15.3831C18.3643 15.366 18.7182 15.2099 18.9828 14.9453C19.2474 14.6807 19.4035 14.3268 19.4206 13.953C19.4376 13.5793 19.3144 13.2126 19.075 12.925C18.4258 12.2734 17.6544 11.7564 16.805 11.4037C15.9555 11.0509 15.0448 10.8693 14.125 10.8693C13.2052 10.8693 12.2945 11.0509 11.4451 11.4037C10.5956 11.7564 9.8242 12.2734 9.17502 12.925L5.38752 16.7125C4.07469 18.0253 3.33716 19.8059 3.33716 21.6625C3.33716 23.5191 4.07469 25.2997 5.38752 26.6125C6.70034 27.9253 8.4809 28.6629 10.3375 28.6629C12.1941 28.6629 13.9747 27.9253 15.2875 26.6125L16.5 25.4C16.7818 25.1182 16.9401 24.736 16.9401 24.3375C16.9401 23.939 16.7818 23.5568 16.5 23.275C16.2182 22.9932 15.836 22.8349 15.4375 22.8349C15.039 22.8349 14.6568 22.9932 14.375 23.275Z" fill="#A8A8A8"/>
</svg>
