<svg width="32" height="32" viewBox="0 0 32 32" fill="none" xmlns="http://www.w3.org/2000/svg">
<path d="M30.7125 9.71249L26.9375 13.475C26.1875 22.2125 18.8125 29 9.99997 29C8.18747 29 6.68747 28.7125 5.54997 28.15C4.63747 27.6875 4.26247 27.2 4.16247 27.05C4.07973 26.9243 4.02641 26.7816 4.0065 26.6325C3.98658 26.4833 4.00057 26.3316 4.04743 26.1887C4.09428 26.0457 4.1728 25.9151 4.27713 25.8067C4.38145 25.6983 4.5089 25.6148 4.64997 25.5625C4.67497 25.55 7.62497 24.425 9.53747 22.2625C8.35139 21.418 7.30891 20.3882 6.44997 19.2125C4.73747 16.8875 2.92497 12.85 4.01247 6.82499C4.04665 6.64588 4.12858 6.47932 4.24959 6.34291C4.3706 6.20649 4.5262 6.10529 4.69997 6.05C4.87428 5.99292 5.06094 5.98488 5.23952 6.02677C5.4181 6.06866 5.58171 6.15886 5.71247 6.2875C5.74997 6.33749 9.91247 10.4375 15 11.7625V11C15.0049 10.2071 15.1659 9.42301 15.4739 8.69238C15.7818 7.96175 16.2307 7.29894 16.7948 6.74179C17.3589 6.18463 18.0272 5.74405 18.7616 5.44519C19.496 5.14633 20.2821 4.99506 21.075 5C22.1156 5.01484 23.1346 5.29897 24.0328 5.82472C24.9309 6.35047 25.6776 7.0999 26.2 8H30C30.1974 7.99938 30.3906 8.05721 30.5552 8.16621C30.7198 8.27521 30.8485 8.43049 30.925 8.6125C30.997 8.79721 31.0153 8.99854 30.9777 9.1932C30.9401 9.38787 30.8481 9.56791 30.7125 9.71249Z" fill="#A8A8A8"/>
</svg>
