<svg width="338" height="20" viewBox="0 0 338 20" fill="none" xmlns="http://www.w3.org/2000/svg">
<g opacity="0.4">
<path d="M28.2674 8.76277L7.22146 8.76277L11.8452 4.13905C12.4829 3.50129 12.4829 2.54466 11.8452 1.90691C11.2074 1.26915 10.2508 1.26915 9.61304 1.90691L2.27885 9.24109C1.6411 9.87885 1.6411 10.8355 2.27885 11.4732L9.61304 18.8074C10.2508 19.4452 11.2074 19.4452 11.8452 18.8074C12.4829 18.1697 12.4829 17.213 11.8452 16.5753L7.22146 11.9515L28.2674 11.9515C29.0646 11.9515 29.8618 11.3138 29.8618 10.3572C29.8618 9.40053 29.0646 8.76277 28.2674 8.76277Z" fill="#458FF6"/>
</g>
<path d="M309.314 11.2372L330.36 11.2372L325.736 15.861C325.098 16.4987 325.098 17.4553 325.736 18.0931C326.374 18.7308 327.33 18.7308 327.968 18.0931L335.302 10.7589C335.94 10.1212 335.94 9.16452 335.302 8.52677L327.968 1.19258C327.33 0.554828 326.374 0.554828 325.736 1.19258C325.098 1.83034 325.098 2.78697 325.736 3.42473L330.36 8.04845L309.314 8.04845C308.516 8.04845 307.719 8.6862 307.719 9.64284C307.719 10.5995 308.516 11.2372 309.314 11.2372Z" fill="#458FF6"/>
<circle opacity="0.3" cx="154.576" cy="10" r="5" fill="#5B9BF3"/>
<circle opacity="0.3" cx="182.576" cy="10" r="5" fill="#5B9BF3"/>
<circle opacity="0.3" cx="210.576" cy="10" r="5" fill="#5B9BF3"/>
<circle cx="126.576" cy="10" r="5" fill="#5B9BF3"/>
</svg>
