<svg width="64" height="48" viewBox="0 0 64 48" fill="none" xmlns="http://www.w3.org/2000/svg">
<g clip-path="url(#clip0_34_779)">
<path d="M63.9999 11.5841V39.6744C63.9999 48.4724 58.6497 48.9879 55.0683 47.1203C53.5329 46.3198 51.515 44.8365 50.0718 43.6828L36.8596 33.172L48.6208 23.8148L63.9999 11.5834V11.5841Z" fill="white"/>
<path d="M63.9999 8.52746V11.5841L39.2755 35.1782L32.0002 29.3182L44.6743 19.2361L60.6886 6.50104C62.0953 5.37926 64.0006 6.54475 64.0006 8.52677L63.9999 8.52746Z" fill="#0B6CFF"/>
<path d="M27.9646 12.5561L11.1908 1.24466C6.44325 -1.95904 0 1.3952 0 7.06862V10.7954H0.00422001V40.575C0.00422001 46.2484 6.44747 49.6026 11.195 46.3989L12.6825 45.3958L32.0011 32.3715H32.0053L44.6794 23.8232L60.8863 12.896C62.836 11.58 64.0014 9.3989 64.0014 7.07209C64.0014 1.39867 57.5581 -1.95558 52.8106 1.24812L36.041 12.5554C33.6054 14.1968 30.4017 14.1968 27.9653 12.5554L27.9646 12.5561Z" fill="white"/>
</g>
<defs>
<clipPath id="clip0_34_779">
<rect width="64" height="48" fill="white"/>
</clipPath>
</defs>
</svg>
