<svg width="250" height="24" viewBox="0 0 250 24" fill="none" xmlns="http://www.w3.org/2000/svg">
<g clip-path="url(#clip0_207_79)">
<path d="M245.999 22C245.999 13.2225 238.777 6 230 6V2C240.971 2 250 11.0292 250 22H245.999V22ZM232.742 16.5125C233.47 16.514 234.167 16.8039 234.682 17.3185C235.196 17.8332 235.486 18.5307 235.487 19.2583C235.484 19.9862 235.193 20.6833 234.677 21.1971C234.162 21.7109 233.464 21.9996 232.736 22C231.225 22 230 20.7717 230 19.2583C230 17.745 231.229 16.5133 232.742 16.5125ZM243.258 22H239.37C239.37 16.8592 235.141 12.6292 230 12.6292V8.74167C237.273 8.74167 243.258 14.7283 243.258 22Z" fill="#858B9B"/>
</g>
<g clip-path="url(#clip1_207_79)">
<path d="M204.654 6.38926C206.183 6.38926 207.619 7.06509 208.674 8.12259V8.12593C208.674 7.61843 209.016 7.23593 209.49 7.23593H209.611C210.353 7.23593 210.505 7.93759 210.505 8.16009L210.509 16.0559C210.457 16.5734 211.043 16.8401 211.367 16.5084C212.634 15.2051 214.152 9.81009 210.578 6.68343C207.248 3.76926 202.781 4.24926 200.404 5.88759C197.878 7.63009 196.262 11.4859 197.833 15.1076C199.544 19.0576 204.442 20.2343 207.353 19.0609C208.827 18.4651 209.508 20.4576 207.977 21.1084C205.663 22.0951 199.225 21.9951 196.218 16.7851C194.186 13.2676 194.294 7.07759 199.683 3.87093C203.806 1.41842 209.242 2.09759 212.518 5.52009C215.944 9.09843 215.745 15.7984 212.403 18.4043C210.889 19.5876 208.639 18.4351 208.654 16.7118L208.638 16.1468C207.584 17.1934 206.182 17.8034 204.653 17.8034C201.633 17.8034 198.976 15.1459 198.976 12.1268C198.976 9.07759 201.633 6.38926 204.654 6.38926ZM208.455 11.9084C208.341 9.69759 206.7 8.36759 204.718 8.36759H204.643C202.356 8.36759 201.087 10.1668 201.087 12.2093C201.087 14.4984 202.622 15.9434 204.633 15.9434C206.878 15.9434 208.353 14.2993 208.46 12.3551L208.455 11.9084Z" fill="#858B9B"/>
</g>
<g clip-path="url(#clip2_207_79)">
<path d="M142.49 5.58901C142.351 5.09078 142.086 4.63683 141.72 4.27106C141.354 3.90529 140.9 3.64007 140.402 3.50101C138.532 3.00001 131.006 3.00001 131.006 3.00001C131.006 3.00001 123.499 2.99001 121.61 3.50101C121.112 3.64007 120.658 3.90529 120.292 4.27106C119.926 4.63683 119.661 5.09078 119.522 5.58901C119.167 7.50352 118.993 9.44698 119 11.394C118.994 13.3337 119.169 15.2697 119.522 17.177C119.661 17.6753 119.926 18.1292 120.292 18.495C120.658 18.8607 121.112 19.126 121.61 19.265C123.478 19.767 131.006 19.767 131.006 19.767C131.006 19.767 138.512 19.767 140.402 19.265C140.9 19.126 141.354 18.8607 141.72 18.495C142.086 18.1292 142.351 17.6753 142.49 17.177C142.836 15.269 143.003 13.333 142.99 11.394C143.004 9.44766 142.837 7.50422 142.49 5.58901V5.58901ZM128.604 14.985V7.79201L134.868 11.394L128.604 14.985Z" fill="#858B9B"/>
</g>
<g clip-path="url(#clip3_207_79)">
<path d="M102.954 3.46901C102.055 3.86462 101.104 4.12575 100.129 4.24401C101.155 3.62726 101.923 2.66006 102.292 1.52101C101.341 2.07601 100.287 2.48001 99.165 2.70501C98.4248 1.91344 97.4439 1.38843 96.3746 1.21151C95.3054 1.03459 94.2077 1.21566 93.2519 1.7266C92.2962 2.23754 91.5359 3.04976 91.0891 4.03714C90.6423 5.02451 90.534 6.13178 90.781 7.18701C86.691 6.99401 83.066 5.03001 80.64 2.06101C80.1988 2.81083 79.9687 3.66604 79.974 4.53601C79.974 6.24601 80.844 7.74901 82.162 8.63201C81.3809 8.60715 80.617 8.39595 79.934 8.01601V8.07701C79.9336 9.2134 80.3263 10.315 81.0455 11.1948C81.7647 12.0746 82.7662 12.6785 83.88 12.904C83.1583 13.0974 82.4024 13.1264 81.668 12.989C81.9843 13.9669 82.5978 14.8218 83.4232 15.4343C84.2485 16.0469 85.2444 16.3866 86.272 16.406C84.5315 17.7719 82.3825 18.5132 80.17 18.511C79.78 18.511 79.391 18.488 79 18.444C81.2557 19.8883 83.8785 20.655 86.557 20.653C95.611 20.653 100.556 13.157 100.556 6.66701C100.556 6.45801 100.556 6.24701 100.541 6.03701C101.507 5.34186 102.34 4.47882 103.001 3.48901L102.954 3.46901Z" fill="#858B9B"/>
</g>
<g clip-path="url(#clip4_207_79)">
<path d="M63.998 12C63.998 5.372 58.626 0 51.999 0C45.372 0 40 5.372 40 12C40 17.988 44.388 22.952 50.124 23.852V15.468H47.078V11.999H50.124V9.356C50.124 6.348 51.916 4.687 54.656 4.687C55.969 4.687 57.342 4.921 57.342 4.921V7.874H55.83C54.34 7.874 53.875 8.799 53.875 9.748V12H57.203L56.671 15.469H53.875V23.853C59.611 22.953 63.999 17.989 63.999 12H63.998Z" fill="#858B9B"/>
</g>
<g clip-path="url(#clip5_207_79)">
<path d="M177.447 20.452H173.893V14.883C173.893 13.555 173.866 11.846 172.041 11.846C170.188 11.846 169.905 13.291 169.905 14.785V20.452H166.351V9H169.765V10.561H169.811C170.288 9.661 171.448 8.711 173.181 8.711C176.782 8.711 177.448 11.081 177.448 14.166V20.452H177.447ZM162.337 7.433C162.066 7.43313 161.797 7.37979 161.547 7.27604C161.296 7.17229 161.069 7.02015 160.877 6.82835C160.686 6.63654 160.534 6.40883 160.43 6.15825C160.327 5.90766 160.274 5.63912 160.274 5.368C160.274 4.95978 160.395 4.56078 160.622 4.22147C160.849 3.88216 161.172 3.61777 161.549 3.46173C161.926 3.30569 162.341 3.26502 162.742 3.34485C163.142 3.42469 163.51 3.62144 163.798 3.91024C164.087 4.19903 164.283 4.5669 164.363 4.96731C164.442 5.36773 164.401 5.78271 164.245 6.15978C164.088 6.53685 163.823 6.85908 163.484 7.08571C163.144 7.31234 162.745 7.4332 162.337 7.433V7.433ZM164.119 20.452H160.555V9H164.119V20.452ZM179.225 0H158.771C157.792 0 157 0.774 157 1.729V22.271C157 23.227 157.792 24 158.771 24H179.222C180.2 24 181 23.227 181 22.271V1.729C181 0.774 180.2 0 179.222 0H179.225Z" fill="#858B9B"/>
</g>
<g clip-path="url(#clip6_207_79)">
<path d="M12 0C5.37 0 0 5.373 0 12C0 17.303 3.438 21.8 8.205 23.385C8.805 23.498 9.025 23.127 9.025 22.808C9.025 22.523 9.015 21.768 9.01 20.768C5.672 21.492 4.968 19.158 4.968 19.158C4.422 17.773 3.633 17.403 3.633 17.403C2.546 16.659 3.717 16.674 3.717 16.674C4.922 16.758 5.555 17.91 5.555 17.91C6.625 19.745 8.364 19.215 9.05 18.908C9.158 18.132 9.467 17.603 9.81 17.303C7.145 17.003 4.344 15.971 4.344 11.373C4.344 10.063 4.809 8.993 5.579 8.153C5.444 7.85 5.039 6.63 5.684 4.977C5.684 4.977 6.689 4.655 8.984 6.207C9.944 5.94 10.964 5.808 11.984 5.802C13.004 5.808 14.024 5.94 14.984 6.207C17.264 4.655 18.269 4.977 18.269 4.977C18.914 6.63 18.509 7.85 18.389 8.153C19.154 8.993 19.619 10.063 19.619 11.373C19.619 15.983 16.814 16.998 14.144 17.293C14.564 17.653 14.954 18.389 14.954 19.513C14.954 21.119 14.939 22.409 14.939 22.799C14.939 23.114 15.149 23.489 15.764 23.369C20.565 21.795 24 17.295 24 12C24 5.373 18.627 0 12 0" fill="#858B9B"/>
</g>
<defs>
<clipPath id="clip0_207_79">
<rect width="20" height="20" fill="white" transform="translate(230 2)"/>
</clipPath>
<clipPath id="clip1_207_79">
<rect width="20" height="20" fill="white" transform="translate(195 2)"/>
</clipPath>
<clipPath id="clip2_207_79">
<rect width="23.99" height="16.767" fill="white" transform="translate(119 3)"/>
</clipPath>
<clipPath id="clip3_207_79">
<rect width="24.001" height="20" fill="white" transform="translate(79 1)"/>
</clipPath>
<clipPath id="clip4_207_79">
<rect width="23.999" height="23.853" fill="white" transform="translate(40)"/>
</clipPath>
<clipPath id="clip5_207_79">
<rect width="24" height="24" fill="white" transform="translate(157)"/>
</clipPath>
<clipPath id="clip6_207_79">
<rect width="24" height="23.385" fill="white"/>
</clipPath>
</defs>
</svg>
