<?xml version="1.0" ?><svg enable-background="new 0 0 32 32" id="Layer_1" version="1.1" viewBox="0 0 32 32" xml:space="preserve" xmlns="http://www.w3.org/2000/svg" xmlns:xlink="http://www.w3.org/1999/xlink"><g id="OUTLINE_copy_2"><g><g><path d="M16,0C7.163,0,0,7.163,0,16s7.163,16,16,16c8.836,0,16-7.164,16-16S24.837,0,16,0z M16.008,24.004     c-1.536,0-2.984-0.384-4.257-1.047l-4.988,2.27l1.396-5.586c-0.872-1.414-1.396-3.09-1.396-4.887     c0-5.096,4.134-9.233,9.246-9.233c5.093,0,9.228,4.137,9.228,9.233C25.236,19.867,21.102,24.004,16.008,24.004z"/></g><g><path d="M16.008,7.371c-4.083,0-7.397,3.299-7.397,7.383c0,1.85,0.681,3.543,1.797,4.835l-1.012,2.566l2.251-1.431     c1.22,0.907,2.721,1.431,4.361,1.431c4.082,0,7.379-3.316,7.379-7.4C23.387,10.67,20.09,7.371,16.008,7.371z M20.684,17.842     c-0.07,0.366-0.942,1.152-1.623,1.309c-1.465,0.331-3.541-0.838-4.885-2.076c-1.344-1.221-2.686-3.194-2.494-4.678     c0.087-0.681,0.802-1.623,1.151-1.745c0.157-0.035,0.383-0.035,0.593-0.035c0.244,0.017,0.454,0.035,0.524,0.174l0.785,2.042     c0.052,0.157-0.07,0.331-0.227,0.524c-0.226,0.262-0.261,0.279-0.471,0.559c-0.104,0.139-0.035,0.314,0,0.383     c0.227,0.541,0.75,1.152,1.221,1.588c0.489,0.437,1.133,0.908,1.692,1.099c0.035,0,0.244,0.087,0.401,0.052     c0.139-0.017,0.226-0.122,0.348-0.279c0.226-0.279,0.314-0.384,0.506-0.646c0.157-0.192,0.313-0.262,0.472-0.175l1.779,0.821     c0.14,0.07,0.192,0.244,0.209,0.489C20.701,17.459,20.719,17.686,20.684,17.842z"/></g></g></g></svg>