<svg width="32" height="32" viewBox="0 0 32 32" fill="none" xmlns="http://www.w3.org/2000/svg">
<g filter="url(#filter0_d_1_180)">
<path d="M26.8875 24.1125L22.6375 19.875C24.0087 18.1281 24.7528 15.9708 24.75 13.75C24.75 11.7722 24.1635 9.83879 23.0647 8.1943C21.9659 6.54981 20.4041 5.26809 18.5768 4.51121C16.7496 3.75433 14.7389 3.5563 12.7991 3.94215C10.8593 4.328 9.07746 5.28041 7.67894 6.67894C6.28041 8.07746 5.328 9.85929 4.94215 11.7991C4.5563 13.7389 4.75433 15.7496 5.51121 17.5768C6.26809 19.4041 7.54981 20.9659 9.1943 22.0647C10.8388 23.1635 12.7722 23.75 14.75 23.75C16.9708 23.7528 19.1281 23.0087 20.875 21.6375L25.1125 25.8875C25.2287 26.0047 25.367 26.0977 25.5193 26.1611C25.6716 26.2246 25.835 26.2573 26 26.2573C26.165 26.2573 26.3284 26.2246 26.4807 26.1611C26.633 26.0977 26.7713 26.0047 26.8875 25.8875C27.0047 25.7713 27.0977 25.633 27.1611 25.4807C27.2246 25.3284 27.2573 25.165 27.2573 25C27.2573 24.835 27.2246 24.6716 27.1611 24.5193C27.0977 24.367 27.0047 24.2287 26.8875 24.1125ZM7.25 13.75C7.25 12.2666 7.68987 10.8166 8.51398 9.58323C9.33809 8.34986 10.5094 7.38857 11.8799 6.82091C13.2503 6.25325 14.7583 6.10473 16.2132 6.39411C17.668 6.6835 19.0044 7.39781 20.0533 8.4467C21.1022 9.4956 21.8165 10.832 22.1059 12.2868C22.3953 13.7417 22.2468 15.2497 21.6791 16.6201C21.1114 17.9906 20.1502 19.1619 18.9168 19.986C17.6834 20.8101 16.2334 21.25 14.75 21.25C12.7609 21.25 10.8532 20.4598 9.4467 19.0533C8.04018 17.6468 7.25 15.7391 7.25 13.75Z" fill="#F9F9F9"/>
</g>
<defs>
<filter id="filter0_d_1_180" x="0.75" y="3.75" width="30.5072" height="30.5072" filterUnits="userSpaceOnUse" color-interpolation-filters="sRGB">
<feFlood flood-opacity="0" result="BackgroundImageFix"/>
<feColorMatrix in="SourceAlpha" type="matrix" values="0 0 0 0 0 0 0 0 0 0 0 0 0 0 0 0 0 0 127 0" result="hardAlpha"/>
<feOffset dy="4"/>
<feGaussianBlur stdDeviation="2"/>
<feComposite in2="hardAlpha" operator="out"/>
<feColorMatrix type="matrix" values="0 0 0 0 0 0 0 0 0 0 0 0 0 0 0 0 0 0 0.25 0"/>
<feBlend mode="normal" in2="BackgroundImageFix" result="effect1_dropShadow_1_180"/>
<feBlend mode="normal" in="SourceGraphic" in2="effect1_dropShadow_1_180" result="shape"/>
</filter>
</defs>
</svg>
