<svg width="32" height="32" viewBox="0 0 32 32" fill="none" xmlns="http://www.w3.org/2000/svg">
<path fill-rule="evenodd" clip-rule="evenodd" d="M10.2511 10.2511C10.5858 9.91632 11.1285 9.91632 11.4633 10.2511L16 14.7878L20.5367 10.2511C20.8715 9.91634 21.4142 9.91634 21.7489 10.2511C22.0837 10.5858 22.0837 11.1285 21.7489 11.4633L17.2122 16L21.7489 20.5367C22.0837 20.8715 22.0837 21.4142 21.7489 21.7489C21.4142 22.0837 20.8715 22.0837 20.5368 21.7489L16 17.2122L11.4632 21.7489C11.1285 22.0837 10.5858 22.0837 10.2511 21.7489C9.91632 21.4142 9.91632 20.8715 10.2511 20.5368L14.7878 16L10.2511 11.4632C9.91634 11.1285 9.91634 10.5858 10.2511 10.2511Z" fill="#1F2429"/>
</svg>
