<svg width="40" height="20" viewBox="0 0 40 20" fill="none" xmlns="http://www.w3.org/2000/svg">
<path d="M9.23077 1H30C34.9706 1 39 5.02944 39 10C39 14.9706 34.9706 19 30 19H1.90476C1.40508 19 1 18.5949 1 18.0952V9.23077C1 4.68504 4.68504 1 9.23077 1Z" fill="white"/>
<path d="M8.79078 9.67429V11.9971C8.79078 12.5551 9.04585 12.9171 9.571 12.9171H10.2462V14.4707H9.2109C8.07058 14.4707 7.24535 13.6562 7.24535 12.5853V9.67429H6V8.12075C7.21534 8.12075 7.7855 7.33643 7.98055 6.09963H9.54099C9.40595 7.00461 9.15088 7.63809 8.67075 8.12075H10.2462V9.67429H8.79078Z" fill="#1F2429"/>
<path d="M14.3857 7.92467C12.5702 7.92467 11.0848 9.38771 11.0848 11.258C11.0848 13.1434 12.5702 14.6667 14.3857 14.6667C16.2012 14.6667 17.6716 13.1434 17.6716 11.258C17.6716 9.38771 16.2012 7.92467 14.3857 7.92467ZM14.3857 13.0529C13.4554 13.0529 12.6902 12.2535 12.6902 11.258C12.6902 10.2927 13.4554 9.53854 14.3857 9.53854C15.316 9.53854 16.0812 10.2927 16.0812 11.258C16.0812 12.2535 15.316 13.0529 14.3857 13.0529Z" fill="#1F2429"/>
<path d="M20.6718 4.66675H19.1263V14.4707H20.6718V4.66675Z" fill="#1F2429"/>
<path d="M27.1602 4.66675V8.75423C26.9802 8.45257 26.425 7.90958 25.2247 7.92467C23.4992 7.93975 22.0888 9.3123 22.0888 11.3485C22.1038 13.3093 23.5442 14.6667 25.2097 14.6667C26.305 14.6667 27.0252 14.0936 27.1602 13.7165V14.4707H28.7207V4.66675H27.1602ZM25.4048 13.083C24.4745 13.083 23.7093 12.3591 23.7093 11.2882C23.7093 10.2474 24.4745 9.52346 25.4048 9.52346C26.35 9.52346 27.1152 10.2474 27.1152 11.2278V11.4842C27.1152 12.3741 26.305 13.083 25.4048 13.083Z" fill="#1F2429"/>
<path d="M31.6314 14.6667C32.2015 14.6667 32.6667 14.1992 32.6667 13.626C32.6667 13.068 32.1865 12.5853 31.6314 12.5853C31.0462 12.5853 30.5961 13.068 30.5961 13.626C30.5961 14.1992 31.0462 14.6667 31.6314 14.6667Z" fill="#1F2429"/>
<path d="M9.23077 1H30C34.9706 1 39 5.02944 39 10C39 14.9706 34.9706 19 30 19H1.90476C1.40508 19 1 18.5949 1 18.0952V9.23077C1 4.68504 4.68504 1 9.23077 1Z" stroke="#1F2429" stroke-width="2"/>
</svg>
